<svg width="40" height="40" viewBox="0 0 40 40" fill="none" xmlns="http://www.w3.org/2000/svg">
<path d="M8.33333 11.6667H10C10.8841 11.6667 11.7319 11.3156 12.357 10.6904C12.9821 10.0653 13.3333 9.21747 13.3333 8.33341C13.3333 7.89139 13.5089 7.46746 13.8215 7.1549C14.134 6.84234 14.558 6.66675 15 6.66675H25C25.442 6.66675 25.8659 6.84234 26.1785 7.1549C26.4911 7.46746 26.6667 7.89139 26.6667 8.33341C26.6667 9.21747 27.0179 10.0653 27.643 10.6904C28.2681 11.3156 29.1159 11.6667 30 11.6667H31.6667C32.5507 11.6667 33.3986 12.0179 34.0237 12.6431C34.6488 13.2682 35 14.116 35 15.0001V30.0001C35 30.8841 34.6488 31.732 34.0237 32.3571C33.3986 32.9822 32.5507 33.3334 31.6667 33.3334H8.33333C7.44928 33.3334 6.60143 32.9822 5.97631 32.3571C5.35119 31.732 5 30.8841 5 30.0001V15.0001C5 14.116 5.35119 13.2682 5.97631 12.6431C6.60143 12.0179 7.44928 11.6667 8.33333 11.6667Z" stroke="#454C53" stroke-width="3" stroke-linecap="round" stroke-linejoin="round"/>
<path d="M15 21.6667C15 22.9928 15.5268 24.2646 16.4645 25.2023C17.4021 26.14 18.6739 26.6667 20 26.6667C21.3261 26.6667 22.5979 26.14 23.5355 25.2023C24.4732 24.2646 25 22.9928 25 21.6667C25 20.3407 24.4732 19.0689 23.5355 18.1312C22.5979 17.1935 21.3261 16.6667 20 16.6667C18.6739 16.6667 17.4021 17.1935 16.4645 18.1312C15.5268 19.0689 15 20.3407 15 21.6667Z" stroke="#454C53" stroke-width="3" stroke-linecap="round" stroke-linejoin="round"/>
</svg>
