<svg width="24" height="24" viewBox="0 0 24 24" fill="none" xmlns="http://www.w3.org/2000/svg">
<path d="M21 18.0001C21 18.7654 20.7077 19.5017 20.1827 20.0584C19.6578 20.6151 18.9399 20.9502 18.176 20.9951L18 21.0001H17C16.2348 21.0002 15.4985 20.7078 14.9417 20.1829C14.385 19.6579 14.0499 18.94 14.005 18.1761L14 18.0001V15.0001C14 14.2349 14.2923 13.4986 14.8173 12.9419C15.3422 12.3851 16.0601 12.05 16.824 12.0051L17 12.0001H18C18.351 12.0001 18.688 12.0601 19 12.1711V12.0001C19.0009 10.1638 18.2802 8.40068 16.9932 7.09081C15.7062 5.78094 13.9561 5.02924 12.12 4.99775C10.284 4.96627 8.50907 5.65752 7.17794 6.9225C5.84681 8.18748 5.06606 9.92487 5.004 11.7601L5 12.0001V12.1701C5.25133 12.0815 5.515 12.0271 5.791 12.0071L6 12.0001H7C7.76521 12.0001 8.50151 12.2925 9.05826 12.8174C9.61501 13.3424 9.95011 14.0602 9.995 14.8241L10 15.0001V18.0001C10 18.7654 9.70767 19.5017 9.18272 20.0584C8.65776 20.6151 7.93989 20.9502 7.176 20.9951L7 21.0001H6C5.23479 21.0002 4.49849 20.7078 3.94174 20.1829C3.38499 19.6579 3.04989 18.94 3.005 18.1761L3 18.0001V12.0001C3.00086 9.63671 3.93135 7.36847 5.59051 5.68532C7.24966 4.00216 9.50431 3.03919 11.8675 3.00439C14.2307 2.9696 16.5127 3.86576 18.2207 5.49933C19.9287 7.1329 20.9256 9.37276 20.996 11.7351L21 12.0001V18.0001Z" fill="#121212"/>
</svg>
