<svg width="24" height="24" viewBox="0 0 24 24" fill="none" xmlns="http://www.w3.org/2000/svg">
<path d="M12.707 2.29279L21.707 11.2928C22.337 11.9228 21.891 12.9998 21 12.9998H20V18.9998C20 19.7954 19.6839 20.5585 19.1213 21.1211C18.5587 21.6837 17.7957 21.9998 17 21.9998H16V14.9998C16 14.2346 15.7077 13.4983 15.1827 12.9415C14.6578 12.3848 13.9399 12.0497 13.176 12.0048L13 11.9998H11C10.2044 11.9998 9.44129 12.3159 8.87868 12.8785C8.31607 13.4411 8 14.2041 8 14.9998V21.9998H7C6.20435 21.9998 5.44129 21.6837 4.87868 21.1211C4.31607 20.5585 4 19.7954 4 18.9998V12.9998H3C2.11 12.9998 1.663 11.9228 2.293 11.2928L11.293 2.29279C11.4805 2.10532 11.7348 2 12 2C12.2652 2 12.5195 2.10532 12.707 2.29279ZM13 13.9998C13.2652 13.9998 13.5196 14.1051 13.7071 14.2927C13.8946 14.4802 14 14.7346 14 14.9998V21.9998H10V14.9998C10 14.7549 10.09 14.5184 10.2527 14.3354C10.4155 14.1524 10.6398 14.0354 10.883 14.0068L11 13.9998H13Z" fill="#121212"/>
</svg>
