<svg width="30" height="30" viewBox="0 0 30 30" fill="none" xmlns="http://www.w3.org/2000/svg">
<path d="M11.25 21.25C11.25 22.2446 10.8549 23.1984 10.1517 23.9017C9.44839 24.6049 8.49456 25 7.5 25C6.50544 25 5.55161 24.6049 4.84835 23.9017C4.14509 23.1984 3.75 22.2446 3.75 21.25C3.75 20.2554 4.14509 19.3016 4.84835 18.5983C5.55161 17.8951 6.50544 17.5 7.5 17.5C8.49456 17.5 9.44839 17.8951 10.1517 18.5983C10.8549 19.3016 11.25 20.2554 11.25 21.25ZM11.25 21.25V5H23.75V16.25M11.25 10H23.75M20 27.5L26.25 21.25M26.25 21.25V26.875M26.25 21.25H20.625" stroke="#72787F" stroke-width="2" stroke-linecap="round" stroke-linejoin="round"/>
</svg>
