<svg width="288" height="100" viewBox="0 0 288 100" fill="none" xmlns="http://www.w3.org/2000/svg">
<rect width="100" height="100" rx="50" fill="#FA4EAB"/>
<g clip-path="url(#clip0_24_318)">
<path d="M22.4737 22.2874C23.695 21.1684 25.5935 21.2509 26.7129 22.472C31.119 27.2786 39.0825 34.3481 48.4825 39.7484C49.4063 40.2791 50.341 40.7899 51.2823 41.2806C62.6391 36.1558 73.0044 35.3086 79.3252 37.1146C83.8614 38.4107 86.5188 41.766 86.1768 45.6614C85.8578 49.2911 82.957 52.2857 79.003 52.9573C69.5521 54.5621 59.8713 52.0338 51.2295 47.9534C41.0915 53.0877 29.8625 62.184 20.0069 77.1497C19.0956 78.5333 17.2343 78.9164 15.8506 78.0052C14.467 77.0939 14.0839 75.2327 14.9952 73.8489C24.2723 59.7616 34.8231 50.4314 44.8702 44.5872C35.136 38.8885 26.9503 31.6116 22.2891 26.5267C21.1697 25.3053 21.2524 23.4069 22.4737 22.2874ZM56.0977 54.3821C56.4386 53.3319 57.5668 52.7566 58.6172 53.097C59.6678 53.4377 60.2429 54.5659 59.9024 55.6165C57.687 62.4476 59.2269 66.516 61.5831 68.9788C64.0896 71.5985 67.883 72.7808 70.6622 73.0062C71.7629 73.0955 72.5832 74.0607 72.4942 75.1614C72.4047 76.2621 71.4397 77.0817 70.3389 76.9925C66.9514 76.7178 62.0941 75.2996 58.6924 71.7444C55.1409 68.0322 53.5135 62.35 56.0977 54.3821ZM77.6768 42.8841C73.9116 41.8083 67.1599 41.908 58.9522 44.6917C65.3292 47.0227 71.843 48.0867 77.9991 47.0413C79.5442 46.7786 80.1443 45.7727 80.2002 45.136C80.2272 44.8268 80.1529 44.4877 79.8741 44.1351C79.5836 43.7679 78.9546 43.2492 77.6768 42.8841Z" fill="white"/>
</g>
<path d="M140.628 73H130.238L119.437 33.5225H130.99L137.757 61.208L143.397 33.5225H153.787L160.692 61.96L167.357 33.5225H175.355L163.392 73H153.001L147.157 49.0059L140.628 73ZM191.968 23.9863C191.968 24.8522 191.797 25.6725 191.455 26.4473C191.136 27.222 190.692 27.8942 190.122 28.4639C189.552 29.0335 188.88 29.4893 188.105 29.8311C187.331 30.1501 186.51 30.3096 185.644 30.3096C184.778 30.3096 183.958 30.1501 183.183 29.8311C182.431 29.4893 181.771 29.0335 181.201 28.4639C180.631 27.8942 180.176 27.222 179.834 26.4473C179.515 25.6725 179.355 24.8522 179.355 23.9863C179.355 23.1204 179.515 22.3115 179.834 21.5596C180.176 20.7848 180.631 20.1126 181.201 19.543C181.771 18.9733 182.431 18.529 183.183 18.21C183.958 17.8682 184.778 17.6973 185.644 17.6973C186.51 17.6973 187.331 17.8682 188.105 18.21C188.88 18.529 189.552 18.9733 190.122 19.543C190.692 20.1126 191.136 20.7848 191.455 21.5596C191.797 22.3115 191.968 23.1204 191.968 23.9863ZM191.455 73H179.868V33.5566H191.455V73ZM240.128 50.373C240.128 53.0391 239.798 55.819 239.137 58.7129C238.499 61.6068 237.599 64.4437 236.437 67.2236C235.275 70.0036 233.885 72.6126 232.267 75.0508C230.649 77.5117 228.872 79.6309 226.935 81.4082L222.594 79.0498C223.209 77.9105 223.79 76.6344 224.337 75.2217C224.884 73.8089 225.374 72.3164 225.807 70.7441C226.263 69.1491 226.661 67.5085 227.003 65.8223C227.368 64.1361 227.664 62.4727 227.892 60.832C228.142 59.1686 228.325 57.5622 228.439 56.0127C228.575 54.4404 228.644 52.9821 228.644 51.6377C228.644 50.749 228.61 49.8034 228.541 48.8008C228.473 47.7754 228.325 46.7614 228.097 45.7588C227.892 44.7334 227.607 43.7536 227.242 42.8193C226.878 41.8851 226.388 41.0648 225.773 40.3584C225.18 39.652 224.451 39.0824 223.585 38.6494C222.742 38.2165 221.739 38 220.577 38C219.438 38 218.424 38.262 217.535 38.7861C216.647 39.2874 215.861 39.9596 215.177 40.8027C214.493 41.623 213.901 42.5687 213.4 43.6396C212.921 44.7106 212.522 45.8158 212.203 46.9551C211.907 48.0716 211.691 49.1768 211.554 50.2705C211.417 51.3643 211.349 52.3441 211.349 53.21V73H199.762V33.5225H204.205L209.503 42.7168C210.141 41.1901 210.939 39.8001 211.896 38.5469C212.853 37.2936 213.935 36.2227 215.143 35.334C216.35 34.4453 217.683 33.7617 219.142 33.2832C220.623 32.8047 222.218 32.5654 223.927 32.5654C226.661 32.5654 229.043 33.0098 231.071 33.8984C233.098 34.7871 234.785 36.029 236.129 37.624C237.473 39.1963 238.476 41.0762 239.137 43.2637C239.798 45.4284 240.128 47.7982 240.128 50.373ZM257.903 73H246.35V18.9961H257.903V54.4404C259.794 53.0732 261.651 51.5693 263.474 49.9287C265.32 48.2881 267.074 46.5677 268.738 44.7676C270.401 42.9447 271.939 41.0876 273.352 39.1963C274.788 37.305 276.041 35.4137 277.112 33.5225H284.973C283.378 36.2113 281.487 38.9001 279.299 41.5889C277.112 44.2549 274.731 46.807 272.156 49.2451L285.11 73H272.361L263.167 56.5254C261.458 57.6875 259.703 58.7585 257.903 59.7383V73Z" fill="#FA4EAB"/>
<defs>
<clipPath id="clip0_24_318">
<rect width="75" height="57" fill="white" transform="translate(12.5 21.5)"/>
</clipPath>
</defs>
</svg>
