<svg width="100" height="100" viewBox="0 0 100 100" fill="none" xmlns="http://www.w3.org/2000/svg">
<rect width="100" height="100" rx="50" fill="#FA4EAB"/>
<g clip-path="url(#clip0_24_319)">
<path d="M22.4737 22.2874C23.695 21.1684 25.5935 21.2509 26.7129 22.472C31.119 27.2786 39.0825 34.3481 48.4825 39.7484C49.4063 40.2791 50.341 40.7899 51.2823 41.2806C62.6391 36.1558 73.0044 35.3086 79.3252 37.1146C83.8614 38.4107 86.5188 41.766 86.1768 45.6614C85.8578 49.2911 82.957 52.2857 79.003 52.9573C69.5521 54.5621 59.8713 52.0338 51.2295 47.9534C41.0915 53.0877 29.8625 62.184 20.0069 77.1497C19.0956 78.5333 17.2343 78.9164 15.8506 78.0052C14.467 77.0939 14.0839 75.2327 14.9952 73.8489C24.2723 59.7616 34.8231 50.4314 44.8702 44.5872C35.136 38.8885 26.9503 31.6116 22.2891 26.5267C21.1697 25.3053 21.2524 23.4069 22.4737 22.2874ZM56.0977 54.3821C56.4386 53.3319 57.5668 52.7566 58.6172 53.097C59.6678 53.4377 60.2429 54.5659 59.9024 55.6165C57.687 62.4476 59.2269 66.516 61.5831 68.9788C64.0896 71.5985 67.883 72.7808 70.6622 73.0062C71.7629 73.0955 72.5832 74.0607 72.4942 75.1614C72.4047 76.2621 71.4397 77.0817 70.3389 76.9925C66.9514 76.7178 62.0941 75.2996 58.6924 71.7444C55.1409 68.0322 53.5135 62.35 56.0977 54.3821ZM77.6768 42.8841C73.9116 41.8083 67.1599 41.908 58.9522 44.6917C65.3292 47.0227 71.843 48.0867 77.9991 47.0413C79.5442 46.7786 80.1443 45.7727 80.2002 45.136C80.2272 44.8268 80.1529 44.4877 79.8741 44.1351C79.5836 43.7679 78.9546 43.2492 77.6768 42.8841Z" fill="white"/>
</g>
<defs>
<clipPath id="clip0_24_319">
<rect width="75" height="57" fill="white" transform="translate(12.5 21.5)"/>
</clipPath>
</defs>
</svg>
