<svg width="166" height="64" viewBox="0 0 166 64" fill="none" xmlns="http://www.w3.org/2000/svg">
<path d="M21.1914 55.3027H10.8008L-7.62939e-06 15.8252H11.5527L18.3203 43.5107L23.96 15.8252H34.3506L41.2549 44.2627L47.9199 15.8252H55.918L43.9551 55.3027H33.5644L27.7197 31.3086L21.1914 55.3027ZM72.5307 6.28906C72.5307 7.15495 72.3598 7.97526 72.018 8.75C71.6989 9.52474 71.2546 10.1969 70.685 10.7666C70.1153 11.3363 69.4431 11.792 68.6684 12.1338C67.8936 12.4528 67.0733 12.6123 66.2074 12.6123C65.3415 12.6123 64.5212 12.4528 63.7465 12.1338C62.9945 11.792 62.3337 11.3363 61.7641 10.7666C61.1944 10.1969 60.7387 9.52474 60.3969 8.75C60.0779 7.97526 59.9184 7.15495 59.9184 6.28906C59.9184 5.42318 60.0779 4.61426 60.3969 3.8623C60.7387 3.08757 61.1944 2.41536 61.7641 1.8457C62.3337 1.27604 62.9945 0.831706 63.7465 0.512695C64.5212 0.170898 65.3415 0 66.2074 0C67.0733 0 67.8936 0.170898 68.6684 0.512695C69.4431 0.831706 70.1153 1.27604 70.685 1.8457C71.2546 2.41536 71.6989 3.08757 72.018 3.8623C72.3598 4.61426 72.5307 5.42318 72.5307 6.28906ZM72.018 55.3027H60.431V15.8594H72.018V55.3027ZM120.691 32.6758C120.691 35.3418 120.361 38.1217 119.7 41.0156C119.062 43.9095 118.162 46.7464 117 49.5264C115.838 52.3063 114.448 54.9154 112.83 57.3535C111.212 59.8145 109.435 61.9336 107.498 63.7109L103.157 61.3525C103.772 60.2132 104.353 58.9372 104.9 57.5244C105.447 56.1117 105.937 54.6191 106.37 53.0469C106.826 51.4518 107.224 49.8112 107.566 48.125C107.931 46.4388 108.227 44.7754 108.455 43.1348C108.706 41.4714 108.888 39.8649 109.002 38.3154C109.138 36.7432 109.207 35.2848 109.207 33.9404C109.207 33.0518 109.173 32.1061 109.104 31.1035C109.036 30.0781 108.888 29.0641 108.66 28.0615C108.455 27.0361 108.17 26.0563 107.805 25.1221C107.441 24.1878 106.951 23.3675 106.336 22.6611C105.743 21.9548 105.014 21.3851 104.148 20.9521C103.305 20.5192 102.303 20.3027 101.14 20.3027C100.001 20.3027 98.9871 20.5648 98.0984 21.0889C97.2098 21.5902 96.4236 22.2624 95.74 23.1055C95.0564 23.9258 94.464 24.8714 93.9627 25.9424C93.4842 27.0133 93.0854 28.1185 92.7664 29.2578C92.4702 30.3743 92.2537 31.4795 92.117 32.5732C91.9803 33.667 91.9119 34.6468 91.9119 35.5127V55.3027H80.325V15.8252H84.7683L90.0662 25.0195C90.7042 23.4928 91.5017 22.1029 92.4588 20.8496C93.4158 19.5964 94.4982 18.5254 95.7058 17.6367C96.9135 16.748 98.2465 16.0645 99.7049 15.5859C101.186 15.1074 102.781 14.8682 104.49 14.8682C107.224 14.8682 109.606 15.3125 111.634 16.2012C113.662 17.0898 115.348 18.3317 116.692 19.9268C118.037 21.499 119.039 23.3789 119.7 25.5664C120.361 27.7311 120.691 30.1009 120.691 32.6758ZM138.466 55.3027H126.913V1.29883H138.466V36.7432C140.357 35.376 142.214 33.8721 144.037 32.2314C145.883 30.5908 147.638 28.8704 149.301 27.0703C150.964 25.2474 152.502 23.3903 153.915 21.499C155.351 19.6077 156.604 17.7165 157.675 15.8252H165.536C163.941 18.514 162.05 21.2028 159.862 23.8916C157.675 26.5576 155.294 29.1097 152.719 31.5479L165.673 55.3027H152.924L143.73 38.8281C142.021 39.9902 140.266 41.0612 138.466 42.041V55.3027Z" fill="#FA4EAB"/>
</svg>
