<svg width="393" height="58" viewBox="0 0 393 58" fill="none" xmlns="http://www.w3.org/2000/svg">
<path d="M59.2666 23.7231C59.9085 23.7231 60.5173 23.8421 61.0928 24.0801C61.6683 24.3125 62.1774 24.6777 62.6201 25.1758C63.0684 25.6683 63.4198 26.3019 63.6743 27.0767C63.9289 27.8459 64.0562 28.7728 64.0562 29.8574V29.874C64.0562 31.2188 63.8625 32.3698 63.4751 33.3271C63.0877 34.2845 62.5316 35.0205 61.8066 35.5352C61.0872 36.0443 60.2267 36.2988 59.2251 36.2988C58.4891 36.2988 57.825 36.166 57.2329 35.9004C56.6463 35.6292 56.1593 35.2585 55.772 34.7881C55.3901 34.3122 55.1328 33.7699 55 33.1611L54.9834 33.0698H57.0835L57.1167 33.1528C57.2218 33.4295 57.3713 33.673 57.5649 33.8833C57.7642 34.0936 58.0021 34.2568 58.2788 34.373C58.561 34.4837 58.8765 34.5391 59.2251 34.5391C59.856 34.5391 60.3706 34.3537 60.769 33.9829C61.173 33.6066 61.4746 33.1058 61.6738 32.4805C61.8786 31.8496 61.9948 31.1523 62.0225 30.3887C62.028 30.3057 62.0308 30.2254 62.0308 30.1479C62.0308 30.0649 62.0308 29.9847 62.0308 29.9072L61.6572 27.9067C61.6572 27.453 61.5521 27.0407 61.3418 26.6699C61.1315 26.2992 60.8465 26.0059 60.4868 25.79C60.1326 25.5742 59.7314 25.4663 59.2832 25.4663C58.8516 25.4663 58.4559 25.5715 58.0962 25.7817C57.7365 25.992 57.4487 26.2798 57.2329 26.645C57.0171 27.0047 56.9092 27.4087 56.9092 27.8569V27.8735C56.9092 28.3384 57.0116 28.7507 57.2163 29.1104C57.4211 29.4645 57.7005 29.744 58.0547 29.9487C58.4089 30.1535 58.8128 30.2559 59.2666 30.2559C59.7204 30.2559 60.1271 30.1562 60.4868 29.957C60.8465 29.7578 61.1315 29.4811 61.3418 29.127C61.5521 28.7728 61.6572 28.3716 61.6572 27.9233V27.9067H62.1553V30.1147H61.8647C61.7209 30.4302 61.5078 30.7235 61.2256 30.9946C60.9434 31.2658 60.5947 31.4844 60.1797 31.6504C59.7702 31.8164 59.2887 31.8994 58.7354 31.8994C57.9717 31.8994 57.2965 31.7279 56.71 31.3848C56.1234 31.0417 55.6613 30.5713 55.3237 29.9736C54.9917 29.376 54.8257 28.7008 54.8257 27.9482V27.9316C54.8257 27.1182 55.0138 26.396 55.3901 25.7651C55.772 25.1287 56.2977 24.6307 56.9673 24.271C57.6424 23.9058 58.4089 23.7231 59.2666 23.7231ZM67.8247 34.3896C67.4484 34.3896 67.133 34.2651 66.8784 34.0161C66.6294 33.7616 66.5049 33.4517 66.5049 33.0864C66.5049 32.7157 66.6294 32.4058 66.8784 32.1567C67.133 31.9022 67.4484 31.7749 67.8247 31.7749C68.2065 31.7749 68.522 31.9022 68.771 32.1567C69.02 32.4058 69.1445 32.7157 69.1445 33.0864C69.1445 33.4517 69.02 33.7616 68.771 34.0161C68.522 34.2651 68.2065 34.3896 67.8247 34.3896ZM67.8247 28.2305C67.4484 28.2305 67.133 28.106 66.8784 27.8569C66.6294 27.6024 66.5049 27.2925 66.5049 26.9272C66.5049 26.5565 66.6294 26.2466 66.8784 25.9976C67.133 25.743 67.4484 25.6157 67.8247 25.6157C68.2065 25.6157 68.522 25.743 68.771 25.9976C69.02 26.2466 69.1445 26.5565 69.1445 26.9272C69.1445 27.2925 69.02 27.6024 68.771 27.8569C68.522 28.106 68.2065 28.2305 67.8247 28.2305ZM77.4038 36V33.7007H71.5435V31.9492C71.8589 31.4124 72.1743 30.8729 72.4897 30.3306C72.8107 29.7882 73.1344 29.2487 73.4609 28.7119C73.793 28.1696 74.1222 27.6356 74.4487 27.1099C74.7808 26.5786 75.11 26.0557 75.4365 25.541C75.7686 25.0208 76.1006 24.5145 76.4326 24.022H79.4458V31.9326H81.0645V33.7007H79.4458V36H77.4038ZM73.5356 31.9824H77.437V25.7319H77.3125C77.069 26.1082 76.8172 26.4956 76.5571 26.894C76.3026 27.2925 76.0452 27.6992 75.7852 28.1143C75.5251 28.5293 75.2677 28.9471 75.0132 29.3677C74.7586 29.7827 74.5068 30.2005 74.2578 30.6211C74.0088 31.0361 73.7681 31.4484 73.5356 31.8579V31.9824ZM86.02 36V26.1304H85.8706L82.8906 28.2305V26.2217L86.02 24.022H88.1533V36H86.02Z" fill="black"/>
<path fill-rule="evenodd" clip-rule="evenodd" d="M301.365 24.5329C301.365 23.8999 300.888 23.3867 300.298 23.3867H299.232C298.643 23.3867 298.165 23.8999 298.165 24.5329V34.4669C298.165 35.0999 298.643 35.6131 299.232 35.6131H300.298C300.888 35.6131 301.365 35.0999 301.365 34.4669V24.5329ZM293.931 25.832H294.998C295.587 25.832 296.064 26.3575 296.064 27.0057V34.4394C296.064 35.0876 295.587 35.6131 294.998 35.6131H293.931C293.342 35.6131 292.864 35.0876 292.864 34.4394V27.0057C292.864 26.3575 293.342 25.832 293.931 25.832ZM289.599 28.481H288.533C287.944 28.481 287.466 29.0132 287.466 29.6697V34.4244C287.466 35.0809 287.944 35.6131 288.533 35.6131H289.599C290.188 35.6131 290.666 35.0809 290.666 34.4244V29.6697C290.666 29.0132 290.188 28.481 289.599 28.481ZM284.298 30.9263H283.232C282.643 30.9263 282.165 31.4509 282.165 32.098V34.4414C282.165 35.0885 282.643 35.6131 283.232 35.6131H284.298C284.888 35.6131 285.365 35.0885 285.365 34.4414V32.098C285.365 31.4509 284.888 30.9263 284.298 30.9263Z" fill="black"/>
<path fill-rule="evenodd" clip-rule="evenodd" d="M316.936 25.8022C319.424 25.8023 321.816 26.7244 323.618 28.3779C323.754 28.5055 323.971 28.5039 324.104 28.3743L325.402 27.1108C325.47 27.045 325.507 26.956 325.507 26.8633C325.506 26.7706 325.467 26.682 325.399 26.617C320.668 22.2423 313.204 22.2423 308.473 26.617C308.405 26.6819 308.366 26.7705 308.365 26.8632C308.364 26.9559 308.402 27.045 308.47 27.1108L309.768 28.3743C309.901 28.5041 310.118 28.5057 310.254 28.3779C312.057 26.7243 314.449 25.8022 316.936 25.8022ZM316.933 30.0225C318.29 30.0224 319.599 30.5342 320.605 31.4583C320.741 31.5894 320.956 31.5866 321.088 31.4519L322.376 30.1326C322.444 30.0634 322.481 29.9695 322.48 29.8719C322.479 29.7744 322.44 29.6813 322.371 29.6135C319.307 26.7227 314.562 26.7227 311.498 29.6135C311.429 29.6813 311.389 29.7744 311.389 29.872C311.388 29.9696 311.425 30.0635 311.493 30.1326L312.78 31.4519C312.913 31.5866 313.127 31.5894 313.263 31.4583C314.269 30.5348 315.577 30.0231 316.933 30.0225ZM319.457 32.816C319.459 32.9214 319.422 33.023 319.355 33.0968L317.178 35.5515C317.115 35.6236 317.028 35.6642 316.937 35.6642C316.846 35.6642 316.759 35.6236 316.695 35.5515L314.518 33.0968C314.451 33.0229 314.414 32.9213 314.416 32.816C314.418 32.7106 314.459 32.6108 314.529 32.5402C315.919 31.2263 317.955 31.2263 319.345 32.5402C319.415 32.6109 319.456 32.7107 319.457 32.816Z" fill="black"/>
<rect opacity="0.35" x="333.007" y="23.5" width="24" height="12" rx="3.8" stroke="black"/>
<path opacity="0.4" d="M358.507 27.7812V31.8567C359.312 31.5116 359.835 30.7086 359.835 29.819C359.835 28.9294 359.312 28.1264 358.507 27.7812Z" fill="black"/>
<rect x="334.507" y="25" width="21" height="9" rx="2.5" fill="black"/>
</svg>
